{
  "accessors": [
    {
      "bufferView": 2,
      "componentType": 5126,
      "count": 168,
      "max": [
        8.5967817306518555,
        -25.398380279541016,
        -80.329071044921875
      ],
      "min": [
        -22.328311920166016,
        -55.481529235839844,
        -109.93917846679688
      ],
      "type": "VEC3"
    },
    {
      "bufferView": 2,
      "byteOffset": 2016,
      "componentType": 5126,
      "count": 168,
      "max": [
        1,
        1,
        1
      ],
      "min": [
        -1,
        -1,
        -1
      ],
      "type": "VEC3"
    },
    {
      "bufferView": 3,
      "componentType": 5126,
      "count": 168,
      "max": [
        0.99986428022384644,
        0.99999260902404785,
        0.99999266862869263,
        1
      ],
      "min": [
        -0.99986428022384644,
        -0.99999266862869263,
        -0.99991011619567871,
        1
      ],
      "type": "VEC4"
    },
    {
      "bufferView": 1,
      "componentType": 5126,
      "count": 168,
      "max": [
        0.95425701141357422,
        0.84946489334106445
      ],
      "min": [
        0.0020000000949949026,
        0.0020000000949949026
      ],
      "type": "VEC2"
    },
    {
      "bufferView": 0,
      "componentType": 5125,
      "count": 354,
      "max": [
        167
      ],
      "min": [
        0
      ],
      "type": "SCALAR"
    },
    {
      "bufferView": 2,
      "byteOffset": 4032,
      "componentType": 5126,
      "count": 308,
      "max": [
        28.561794281005859,
        17.943046569824219,
        21.040672302246094
      ],
      "min": [
        -27.79127311706543,
        -53.082931518554688,
        -21.040683746337891
      ],
      "type": "VEC3"
    },
    {
      "bufferView": 2,
      "byteOffset": 7728,
      "componentType": 5126,
      "count": 308,
      "max": [
        1,
        1,
        1
      ],
      "min": [
        -1,
        -1,
        -1
      ],
      "type": "VEC3"
    },
    {
      "bufferView": 3,
      "byteOffset": 2688,
      "componentType": 5126,
      "count": 308,
      "max": [
        1,
        1,
        1,
        1
      ],
      "min": [
        -1,
        -1,
        -0.99998480081558228,
        1
      ],
      "type": "VEC4"
    },
    {
      "bufferView": 1,
      "byteOffset": 1344,
      "componentType": 5126,
      "count": 308,
      "max": [
        0.97572928667068481,
        0.99799996614456177
      ],
      "min": [
        0.053983896970748901,
        0.0020000000949949026
      ],
      "type": "VEC2"
    },
    {
      "bufferView": 0,
      "byteOffset": 1416,
      "componentType": 5125,
      "count": 570,
      "max": [
        307
      ],
      "min": [
        0
      ],
      "type": "SCALAR"
    },
    {
      "bufferView": 2,
      "byteOffset": 11424,
      "componentType": 5126,
      "count": 218,
      "max": [
        8.5967893600463867,
        -37.155399322509766,
        -35.248268127441406
      ],
      "min": [
        -20.903564453125,
        -55.481521606445312,
        -64.858383178710938
      ],
      "type": "VEC3"
    },
    {
      "bufferView": 2,
      "byteOffset": 14040,
      "componentType": 5126,
      "count": 218,
      "max": [
        1,
        1,
        1
      ],
      "min": [
        -1,
        -1,
        -1
      ],
      "type": "VEC3"
    },
    {
      "bufferView": 3,
      "byteOffset": 7616,
      "componentType": 5126,
      "count": 218,
      "max": [
        1,
        1,
        1,
        1
      ],
      "min": [
        -1,
        -1,
        -0.99539661407470703,
        1
      ],
      "type": "VEC4"
    },
    {
      "bufferView": 1,
      "byteOffset": 3808,
      "componentType": 5126,
      "count": 218,
      "max": [
        0.28595158457756042,
        0.84946489334106445
      ],
      "min": [
        0.0020000000949949026,
        0.43729797005653381
      ],
      "type": "VEC2"
    },
    {
      "bufferView": 0,
      "byteOffset": 3696,
      "componentType": 5125,
      "count": 420,
      "max": [
        217
      ],
      "min": [
        0
      ],
      "type": "SCALAR"
    },
    {
      "bufferView": 2,
      "byteOffset": 16656,
      "componentType": 5126,
      "count": 215,
      "max": [
        5.0213885307312012,
        -38.116943359375,
        71.741996765136719
      ],
      "min": [
        -7.7720789909362793,
        -55.481517791748047,
        34.005077362060547
      ],
      "type": "VEC3"
    },
    {
      "bufferView": 2,
      "byteOffset": 19236,
      "componentType": 5126,
      "count": 215,
      "max": [
        1,
        1,
        1
      ],
      "min": [
        -1,
        -1,
        -1
      ],
      "type": "VEC3"
    },
    {
      "bufferView": 3,
      "byteOffset": 11104,
      "componentType": 5126,
      "count": 215,
      "max": [
        1,
        1,
        0.9999840259552002,
        1
      ],
      "min": [
        -1,
        -1,
        -0.99851137399673462,
        1
      ],
      "type": "VEC4"
    },
    {
      "bufferView": 1,
      "byteOffset": 5552,
      "componentType": 5126,
      "count": 215,
      "max": [
        0.67862308025360107,
        0.96156454086303711
      ],
      "min": [
        0.0020000000949949026,
        0.064666435122489929
      ],
      "type": "VEC2"
    },
    {
      "bufferView": 0,
      "byteOffset": 5376,
      "componentType": 5125,
      "count": 456,
      "max": [
        214
      ],
      "min": [
        0
      ],
      "type": "SCALAR"
    }
  ],
  "asset": {
    "extras": {
      "author": "Renafox (https://sketchfab.com/kryik1023)",
      "license": "CC-BY-4.0 (http://creativecommons.org/licenses/by/4.0/)",
      "source": "https://sketchfab.com/3d-models/lab-things-6ed351eea02e4aefb6c3aad80a763890",
      "title": "Lab Things"
    },
    "generator": "Sketchfab-5.21.0",
    "version": "2.0"
  },
  "bufferViews": [
    {
      "buffer": 0,
      "byteLength": 7200,
      "byteOffset": 0,
      "name": "floatBufferViews",
      "target": 34963
    },
    {
      "buffer": 0,
      "byteLength": 7272,
      "byteOffset": 7200,
      "byteStride": 8,
      "name": "floatBufferViews",
      "target": 34962
    },
    {
      "buffer": 0,
      "byteLength": 21816,
      "byteOffset": 14472,
      "byteStride": 12,
      "name": "floatBufferViews",
      "target": 34962
    },
    {
      "buffer": 0,
      "byteLength": 14544,
      "byteOffset": 36288,
      "byteStride": 16,
      "name": "floatBufferViews",
      "target": 34962
    }
  ],
  "buffers": [
    {
      "byteLength": 50832,
      "uri": "scene.bin"
    }
  ],
  "images": [
    {
      "uri": "textures/Material_2_metallicRoughness.png"
    },
    {
      "uri": "textures/Material_2_emissive.png"
    },
    {
      "uri": "textures/Material_2_baseColor.png"
    },
    {
      "uri": "textures/Material_2_normal.png"
    }
  ],
  "materials": [
    {
      "doubleSided": true,
      "emissiveFactor": [
        1,
        1,
        1
      ],
      "emissiveTexture": {
        "index": 1,
        "texCoord": 0
      },
      "name": "Material_2",
      "normalTexture": {
        "index": 3,
        "scale": 1,
        "texCoord": 0
      },
      "occlusionTexture": {
        "index": 0,
        "strength": 1,
        "texCoord": 0
      },
      "pbrMetallicRoughness": {
        "baseColorFactor": [
          1,
          1,
          1,
          1
        ],
        "baseColorTexture": {
          "index": 2,
          "texCoord": 0
        },
        "metallicFactor": 1,
        "metallicRoughnessTexture": {
          "index": 0,
          "texCoord": 0
        },
        "roughnessFactor": 1
      }
    }
  ],
  "meshes": [
    {
      "name": "Box002_Material #2_0",
      "primitives": [
        {
          "attributes": {
            "NORMAL": 1,
            "POSITION": 0,
            "TANGENT": 2,
            "TEXCOORD_0": 3
          },
          "indices": 4,
          "material": 0,
          "mode": 4
        }
      ]
    },
    {
      "name": "Object001_Material #2_0",
      "primitives": [
        {
          "attributes": {
            "NORMAL": 6,
            "POSITION": 5,
            "TANGENT": 7,
            "TEXCOORD_0": 8
          },
          "indices": 9,
          "material": 0,
          "mode": 4
        }
      ]
    },
    {
      "name": "Object002_Material #2_0",
      "primitives": [
        {
          "attributes": {
            "NORMAL": 11,
            "POSITION": 10,
            "TANGENT": 12,
            "TEXCOORD_0": 13
          },
          "indices": 14,
          "material": 0,
          "mode": 4
        }
      ]
    },
    {
      "name": "Object003_Material #2_0",
      "primitives": [
        {
          "attributes": {
            "NORMAL": 16,
            "POSITION": 15,
            "TANGENT": 17,
            "TEXCOORD_0": 18
          },
          "indices": 19,
          "material": 0,
          "mode": 4
        }
      ]
    }
  ],
  "nodes": [
    {
      "children": [
        1
      ],
      "name": "RootNode (gltf orientation matrix)",
      "rotation": [
        -0.70710678118654746,
        -0,
        -0,
        0.70710678118654757
      ]
    },
    {
      "children": [
        2
      ],
      "name": "RootNode (model correction matrix)"
    },
    {
      "children": [
        3
      ],
      "matrix": [
        1,
        0,
        0,
        0,
        0,
        0,
        1,
        0,
        0,
        -1,
        0,
        0,
        0,
        0,
        0,
        1
      ],
      "name": "labthings.FBX"
    },
    {
      "children": [
        4,
        7,
        10,
        13
      ],
      "name": "RootNode"
    },
    {
      "children": [
        5
      ],
      "matrix": [
        0.58953530597051895,
        -4.9459967708407807e-17,
        0.80774260938385967,
        0,
        -3.5307551502480359e-08,
        0.999999999999999,
        2.5769407216764451e-08,
        0,
        -0.807742609383859,
        -4.3711389149782638e-08,
        0.5895353059705184,
        0,
        46.433441162109375,
        15.04156494140625,
        -17.358982086181641,
        1
      ],
      "name": "Box002"
    },
    {
      "children": [
        6
      ],
      "matrix": [
        1,
        0,
        -0,
        0,
        0,
        1,
        0,
        0,
        0,
        0,
        1,
        0,
        6.8657650947570801,
        40.439956665039062,
        95.134124755859375,
        1
      ],
      "name": ""
    },
    {
      "mesh": 0,
      "name": "Box002_Material #2_0"
    },
    {
      "children": [
        8
      ],
      "matrix": [
        1.6292068449885733e-07,
        -1.3234889800848443e-23,
        0.99999999999998668,
        0,
        -1.6292068488171135e-07,
        0.99999999999998668,
        2.6543149516178714e-14,
        0,
        -0.99999999999997335,
        -1.6292068488171352e-07,
        1.6292068449885733e-07,
        0,
        8.083561624516733e-06,
        37.911575317382812,
        10.410673141479492,
        1
      ],
      "name": "Object001"
    },
    {
      "children": [
        9
      ],
      "matrix": [
        1,
        0,
        -0,
        0,
        0,
        1,
        0,
        0,
        0,
        0,
        1,
        0,
        -0.38526058197021484,
        17.569942474365234,
        5.7220458984375e-06,
        1
      ],
      "name": ""
    },
    {
      "mesh": 1,
      "name": "Object001_Material #2_0"
    },
    {
      "children": [
        11
      ],
      "matrix": [
        -0.46807552248235829,
        -5.7322756182087763e-17,
        0.88368846617621277,
        0,
        -1.4397113277091419e-07,
        0.99999999999998668,
        -7.6259186032379483e-08,
        0,
        -0.883688466176201,
        -1.6292068783816643e-07,
        -0.46807552248235207,
        0,
        -54.782054901123047,
        9.1630668640136719,
        -39.820674896240234,
        1
      ],
      "name": "Object002"
    },
    {
      "children": [
        12
      ],
      "matrix": [
        1,
        0,
        -0,
        0,
        0,
        1,
        0,
        0,
        0,
        0,
        1,
        0,
        6.1533875465393066,
        46.318458557128906,
        50.053325653076172,
        1
      ],
      "name": ""
    },
    {
      "mesh": 2,
      "name": "Object002_Material #2_0"
    },
    {
      "children": [
        14
      ],
      "matrix": [
        0.43473087695737422,
        -5.5143446287920855e-17,
        0.90056041697371547,
        0,
        -1.4671991651132133e-07,
        0.99999999999998668,
        7.0826650633351711e-08,
        0,
        -0.90056041697370348,
        -1.6292068113357481e-07,
        0.43473087695736845,
        0,
        -24.337882995605469,
        8.6822776794433594,
        -29.541990280151367,
        1
      ],
      "name": "Object003"
    },
    {
      "children": [
        15
      ],
      "matrix": [
        1,
        0,
        -0,
        0,
        0,
        1,
        0,
        0,
        0,
        0,
        1,
        0,
        1.3753452301025391,
        46.799232482910156,
        -52.87353515625,
        1
      ],
      "name": ""
    },
    {
      "mesh": 3,
      "name": "Object003_Material #2_0"
    }
  ],
  "samplers": [
    {
      "magFilter": 9729,
      "minFilter": 9987,
      "wrapS": 10497,
      "wrapT": 10497
    }
  ],
  "scene": 0,
  "scenes": [
    {
      "name": "OSG_Scene",
      "nodes": [
        0
      ]
    }
  ],
  "textures": [
    {
      "sampler": 0,
      "source": 0
    },
    {
      "sampler": 0,
      "source": 1
    },
    {
      "sampler": 0,
      "source": 2
    },
    {
      "sampler": 0,
      "source": 3
    }
  ]
}

