{
  "accessors": [
    {
      "bufferView": 2,
      "componentType": 5126,
      "count": 1772,
      "max": [
        64.291893005371094,
        11.906903266906738,
        -0.32262802124023438
      ],
      "min": [
        -64.112228393554688,
        -11.428133010864258,
        -90.745246887207031
      ],
      "type": "VEC3"
    },
    {
      "bufferView": 2,
      "byteOffset": 21264,
      "componentType": 5126,
      "count": 1772,
      "max": [
        1,
        1,
        0.99976783990859985
      ],
      "min": [
        -1,
        -1,
        -0.9997677206993103
      ],
      "type": "VEC3"
    },
    {
      "bufferView": 3,
      "componentType": 5126,
      "count": 1772,
      "max": [
        1,
        0.9999995231628418,
        0.99976426362991333,
        1
      ],
      "min": [
        -1,
        -1,
        -0.99976426362991333,
        -1
      ],
      "type": "VEC4"
    },
    {
      "bufferView": 1,
      "componentType": 5126,
      "count": 1772,
      "max": [
        0.9783174991607666,
        0.99500000476837158
      ],
      "min": [
        0.004999999888241291,
        0.004999999888241291
      ],
      "type": "VEC2"
    },
    {
      "bufferView": 0,
      "componentType": 5125,
      "count": 6048,
      "max": [
        1771
      ],
      "min": [
        0
      ],
      "type": "SCALAR"
    }
  ],
  "asset": {
    "extras": {
      "author": "Juan Milanese (https://sketchfab.com/juanmilanese)",
      "license": "CC-BY-4.0 (http://creativecommons.org/licenses/by/4.0/)",
      "source": "https://sketchfab.com/3d-models/industrial-lamp-02-mobile-3ba9bccc46c64152ae02e2d30da372c3",
      "title": "Industrial Lamp 02 (Mobile)"
    },
    "generator": "Sketchfab-6.16.0",
    "version": "2.0"
  },
  "bufferViews": [
    {
      "buffer": 0,
      "byteLength": 24192,
      "byteOffset": 0,
      "name": "floatBufferViews",
      "target": 34963
    },
    {
      "buffer": 0,
      "byteLength": 14176,
      "byteOffset": 24192,
      "byteStride": 8,
      "name": "floatBufferViews",
      "target": 34962
    },
    {
      "buffer": 0,
      "byteLength": 42528,
      "byteOffset": 38368,
      "byteStride": 12,
      "name": "floatBufferViews",
      "target": 34962
    },
    {
      "buffer": 0,
      "byteLength": 28352,
      "byteOffset": 80896,
      "byteStride": 16,
      "name": "floatBufferViews",
      "target": 34962
    }
  ],
  "buffers": [
    {
      "byteLength": 109248,
      "uri": "scene.bin"
    }
  ],
  "images": [
    {
      "uri": "textures/MAT_Industrial_Roof_Lamp_02_baseColor.png"
    },
    {
      "uri": "textures/MAT_Industrial_Roof_Lamp_02_metallicRoughness.png"
    },
    {
      "uri": "textures/MAT_Industrial_Roof_Lamp_02_emissive.png"
    },
    {
      "uri": "textures/MAT_Industrial_Roof_Lamp_02_normal.png"
    }
  ],
  "materials": [
    {
      "doubleSided": false,
      "emissiveFactor": [
        1,
        1,
        1
      ],
      "emissiveTexture": {
        "index": 2,
        "texCoord": 0
      },
      "name": "MAT_Industrial_Roof_Lamp_02",
      "normalTexture": {
        "index": 3,
        "scale": 1,
        "texCoord": 0
      },
      "occlusionTexture": {
        "index": 1,
        "strength": 1,
        "texCoord": 0
      },
      "pbrMetallicRoughness": {
        "baseColorFactor": [
          1,
          1,
          1,
          1
        ],
        "baseColorTexture": {
          "index": 0,
          "texCoord": 0
        },
        "metallicFactor": 1,
        "metallicRoughnessTexture": {
          "index": 1,
          "texCoord": 0
        },
        "roughnessFactor": 1
      }
    }
  ],
  "meshes": [
    {
      "name": "SM_Industrial_Roof_Lamp_02_MAT_Industrial_Roof_Lamp_02_0",
      "primitives": [
        {
          "attributes": {
            "NORMAL": 1,
            "POSITION": 0,
            "TANGENT": 2,
            "TEXCOORD_0": 3
          },
          "indices": 4,
          "material": 0,
          "mode": 4
        }
      ]
    }
  ],
  "nodes": [
    {
      "children": [
        1
      ],
      "name": "RootNode (gltf orientation matrix)",
      "rotation": [
        -0.70710678118654746,
        -0,
        -0,
        0.70710678118654757
      ]
    },
    {
      "children": [
        2
      ],
      "name": "RootNode (model correction matrix)"
    },
    {
      "children": [
        3
      ],
      "matrix": [
        1,
        0,
        0,
        0,
        0,
        0,
        1,
        0,
        0,
        -1,
        0,
        0,
        0,
        0,
        0,
        1
      ],
      "name": "9d2653ce6c314a3ea78d44185618abc1.fbx"
    },
    {
      "children": [
        4
      ],
      "name": "RootNode"
    },
    {
      "children": [
        5
      ],
      "matrix": [
        1,
        0,
        0,
        0,
        0,
        -1.7484555314695172e-07,
        -0.99999999999998479,
        0,
        0,
        0.99999999999998479,
        -1.7484555314695172e-07,
        0,
        0,
        0,
        0,
        1
      ],
      "name": "SM_Industrial_Roof_Lamp_02"
    },
    {
      "children": [
        6
      ],
      "matrix": [
        1,
        0,
        -0,
        0,
        0,
        1,
        0,
        0,
        0,
        0,
        1,
        0,
        -0.089832305908203125,
        -0.23939236998558044,
        79.34173583984375,
        1
      ],
      "name": ""
    },
    {
      "mesh": 0,
      "name": "SM_Industrial_Roof_Lamp_02_MAT_Industrial_Roof_Lamp_02_0"
    }
  ],
  "samplers": [
    {
      "magFilter": 9729,
      "minFilter": 9987,
      "wrapS": 10497,
      "wrapT": 10497
    }
  ],
  "scene": 0,
  "scenes": [
    {
      "name": "OSG_Scene",
      "nodes": [
        0
      ]
    }
  ],
  "textures": [
    {
      "sampler": 0,
      "source": 0
    },
    {
      "sampler": 0,
      "source": 1
    },
    {
      "sampler": 0,
      "source": 2
    },
    {
      "sampler": 0,
      "source": 3
    }
  ]
}

